<svg width="106" height="21" viewBox="0 0 106 21" fill="none" xmlns="http://www.w3.org/2000/svg">
<path d="M50.1333 13.6022L50.122 8.35261L47.5199 12.6971H46.8637L44.2615 8.42049V13.6022H42.8586V5.68258H44.0692L47.2144 10.9321L50.3031 5.68258H51.5136L51.5249 13.6022H50.1333ZM55.5849 7.49277C56.4749 7.49277 57.1538 7.70773 57.6214 8.13765C58.0966 8.56003 58.3342 9.20114 58.3342 10.061V13.6022H56.9991V12.8668C56.8257 13.1308 56.5768 13.3344 56.2524 13.4777C55.9357 13.6135 55.551 13.6814 55.0984 13.6814C54.6459 13.6814 54.2499 13.6059 53.9105 13.4551C53.5711 13.2967 53.3071 13.0817 53.1185 12.8102C52.9375 12.5311 52.847 12.2181 52.847 11.8712C52.847 11.3281 53.0469 10.8944 53.4466 10.5701C53.8539 10.2382 54.4913 10.0723 55.3587 10.0723H56.9199V9.98179C56.9199 9.55941 56.7917 9.23508 56.5353 9.00881C56.2864 8.78253 55.913 8.6694 55.4152 8.6694C55.0758 8.6694 54.7402 8.72219 54.4083 8.82779C54.084 8.93338 53.8087 9.08046 53.5824 9.26902L53.028 8.23947C53.3448 7.99812 53.7257 7.81332 54.1707 7.6851C54.6157 7.55688 55.0871 7.49277 55.5849 7.49277ZM55.3926 12.6518C55.7471 12.6518 56.0601 12.5726 56.3316 12.4142C56.6107 12.2483 56.8068 12.0145 56.9199 11.7128V11.0113H55.4605C54.6459 11.0113 54.2386 11.2791 54.2386 11.8146C54.2386 12.0711 54.3404 12.2747 54.5441 12.4255C54.7477 12.5764 55.0306 12.6518 55.3926 12.6518ZM61.7645 13.6814C61.2742 13.6814 60.7953 13.6173 60.3276 13.489C59.86 13.3608 59.4866 13.1987 59.2076 13.0025L59.7506 11.9277C60.0222 12.1088 60.3465 12.2558 60.7236 12.369C61.1083 12.4746 61.4854 12.5274 61.855 12.5274C62.6997 12.5274 63.1221 12.3049 63.1221 11.8599C63.1221 11.6487 63.0127 11.5016 62.794 11.4186C62.5828 11.3357 62.2396 11.2565 61.7645 11.181C61.2667 11.1056 60.8594 11.0189 60.5426 10.9208C60.2333 10.8228 59.9618 10.6531 59.728 10.4117C59.5017 10.1628 59.3886 9.81962 59.3886 9.38216C59.3886 8.80893 59.6262 8.35261 60.1014 8.0132C60.5841 7.66625 61.2327 7.49277 62.0473 7.49277C62.4621 7.49277 62.877 7.5418 63.2918 7.63985C63.7067 7.73036 64.0461 7.85481 64.3101 8.0132L63.767 9.088C63.2541 8.7863 62.6771 8.63545 62.036 8.63545C61.6212 8.63545 61.3044 8.69957 61.0856 8.82779C60.8745 8.94847 60.7689 9.11063 60.7689 9.31428C60.7689 9.54055 60.882 9.70271 61.1083 9.80077C61.3421 9.89128 61.7004 9.97801 62.1831 10.061C62.6658 10.1364 63.0618 10.2231 63.371 10.3212C63.6803 10.4192 63.9442 10.5852 64.163 10.819C64.3893 11.0528 64.5024 11.3847 64.5024 11.8146C64.5024 12.3803 64.2573 12.8328 63.767 13.1723C63.2767 13.5117 62.6092 13.6814 61.7645 13.6814ZM69.1006 13.2741C68.9346 13.4098 68.731 13.5117 68.4896 13.5795C68.2558 13.6474 68.0069 13.6814 67.7429 13.6814C67.0792 13.6814 66.5663 13.5079 66.2043 13.1609C65.8422 12.814 65.6612 12.3086 65.6612 11.6449V8.73728H64.6656V7.60591H65.6612V6.22563H67.0754V7.60591H68.6933V8.73728H67.0754V11.611C67.0754 11.9051 67.1471 12.1314 67.2904 12.2898C67.4337 12.4406 67.6411 12.5161 67.9126 12.5161C68.2294 12.5161 68.4934 12.4331 68.7046 12.2672L69.1006 13.2741ZM75.4931 10.6154C75.4931 10.7134 75.4856 10.8529 75.4705 11.034H70.7301C70.813 11.479 71.028 11.8335 71.3749 12.0974C71.7294 12.3539 72.1669 12.4821 72.6873 12.4821C73.3511 12.4821 73.8979 12.2634 74.3278 11.8259L75.0858 12.6971C74.8143 13.0214 74.4711 13.2665 74.0563 13.4325C73.6415 13.5984 73.1738 13.6814 72.6534 13.6814C71.9897 13.6814 71.4051 13.5494 70.8998 13.2854C70.3944 13.0214 70.0022 12.6556 69.7231 12.188C69.4516 11.7128 69.3159 11.1773 69.3159 10.5814C69.3159 9.9931 69.4478 9.46513 69.7118 8.99749C69.9834 8.52232 70.3567 8.15274 70.8319 7.88875C71.3071 7.62476 71.8426 7.49277 72.4384 7.49277C73.0267 7.49277 73.5509 7.62476 74.011 7.88875C74.4787 8.14519 74.8407 8.511 75.0972 8.98618C75.3611 9.45381 75.4931 9.99687 75.4931 10.6154ZM72.4384 8.62414C71.9859 8.62414 71.6012 8.75991 71.2844 9.03143C70.9752 9.29542 70.7866 9.64992 70.7188 10.0949H74.1468C74.0865 9.65746 73.9017 9.30296 73.5924 9.03143C73.2832 8.75991 72.8985 8.62414 72.4384 8.62414ZM77.9465 8.44312C78.3538 7.80955 79.0703 7.49277 80.0961 7.49277V8.8391C79.9754 8.81647 79.8661 8.80516 79.768 8.80516C79.2174 8.80516 78.7875 8.96732 78.4782 9.29165C78.169 9.60843 78.0144 10.0685 78.0144 10.6719V13.6022H76.6002V7.56065H77.9465V8.44312ZM83.761 13.6814C83.135 13.6814 82.5731 13.5494 82.0752 13.2854C81.5774 13.0214 81.189 12.6556 80.9099 12.188C80.6309 11.7128 80.4913 11.1773 80.4913 10.5814C80.4913 9.98556 80.6309 9.45381 80.9099 8.98618C81.189 8.51855 81.5737 8.15274 82.0639 7.88875C82.5617 7.62476 83.1274 7.49277 83.761 7.49277C84.3568 7.49277 84.8773 7.61345 85.3223 7.85481C85.7748 8.09617 86.1142 8.44312 86.3405 8.89567L85.2544 9.52924C85.0809 9.25017 84.8622 9.04275 84.5982 8.90698C84.3418 8.76368 84.0589 8.69202 83.7497 8.69202C83.2217 8.69202 82.7842 8.8655 82.4373 9.21245C82.0903 9.55186 81.9169 10.0082 81.9169 10.5814C81.9169 11.1546 82.0866 11.6147 82.426 11.9617C82.7729 12.3011 83.2142 12.4708 83.7497 12.4708C84.0589 12.4708 84.3418 12.4029 84.5982 12.2672C84.8622 12.1238 85.0809 11.9127 85.2544 11.6336L86.3405 12.2672C86.1067 12.7197 85.7635 13.0704 85.311 13.3193C84.866 13.5607 84.3493 13.6814 83.761 13.6814ZM89.6196 7.49277C90.5096 7.49277 91.1884 7.70773 91.6561 8.13765C92.1312 8.56003 92.3688 9.20114 92.3688 10.061V13.6022H91.0338V12.8668C90.8603 13.1308 90.6114 13.3344 90.2871 13.4777C89.9703 13.6135 89.5857 13.6814 89.1331 13.6814C88.6806 13.6814 88.2846 13.6059 87.9452 13.4551C87.6058 13.2967 87.3418 13.0817 87.1532 12.8102C86.9722 12.5311 86.8817 12.2181 86.8817 11.8712C86.8817 11.3281 87.0816 10.8944 87.4813 10.5701C87.8886 10.2382 88.5259 10.0723 89.3933 10.0723H90.9546V9.98179C90.9546 9.55941 90.8264 9.23508 90.57 9.00881C90.3211 8.78253 89.9477 8.6694 89.4499 8.6694C89.1105 8.6694 88.7748 8.72219 88.443 8.82779C88.1186 8.93338 87.8433 9.08046 87.6171 9.26902L87.0627 8.23947C87.3795 7.99812 87.7604 7.81332 88.2054 7.6851C88.6504 7.55688 89.1218 7.49277 89.6196 7.49277ZM89.4273 12.6518C89.7818 12.6518 90.0948 12.5726 90.3663 12.4142C90.6454 12.2483 90.8415 12.0145 90.9546 11.7128V11.0113H89.4952C88.6806 11.0113 88.2733 11.2791 88.2733 11.8146C88.2733 12.0711 88.3751 12.2747 88.5787 12.4255C88.7824 12.5764 89.0652 12.6518 89.4273 12.6518ZM95.2787 8.44312C95.686 7.80955 96.4025 7.49277 97.4283 7.49277V8.8391C97.3076 8.81647 97.1983 8.80516 97.1002 8.80516C96.5496 8.80516 96.1197 8.96732 95.8105 9.29165C95.5012 9.60843 95.3466 10.0685 95.3466 10.6719V13.6022H93.9324V7.56065H95.2787V8.44312ZM104.238 5.2074V13.6022H102.881V12.8215C102.647 13.1081 102.357 13.3231 102.01 13.4664C101.67 13.6097 101.293 13.6814 100.878 13.6814C100.297 13.6814 99.7733 13.5531 99.3056 13.2967C98.8456 13.0403 98.4835 12.6782 98.2195 12.2106C97.9555 11.7354 97.8236 11.1924 97.8236 10.5814C97.8236 9.97047 97.9555 9.43119 98.2195 8.96355C98.4835 8.49592 98.8456 8.13388 99.3056 7.87744C99.7733 7.62099 100.297 7.49277 100.878 7.49277C101.278 7.49277 101.644 7.56065 101.976 7.69642C102.308 7.83218 102.59 8.03583 102.824 8.30736V5.2074H104.238ZM101.048 12.4708C101.387 12.4708 101.693 12.3954 101.964 12.2445C102.236 12.0861 102.451 11.8636 102.609 11.577C102.768 11.2904 102.847 10.9585 102.847 10.5814C102.847 10.2043 102.768 9.87242 102.609 9.58581C102.451 9.29919 102.236 9.08046 101.964 8.92961C101.693 8.77122 101.387 8.69202 101.048 8.69202C100.709 8.69202 100.403 8.77122 100.132 8.92961C99.86 9.08046 99.6451 9.29919 99.4867 9.58581C99.3283 9.87242 99.2491 10.2043 99.2491 10.5814C99.2491 10.9585 99.3283 11.2904 99.4867 11.577C99.6451 11.8636 99.86 12.0861 100.132 12.2445C100.403 12.3954 100.709 12.4708 101.048 12.4708Z" fill="white"/>
<circle cx="23.2062" cy="10.2979" r="10.0647" fill="white" fill-opacity="0.2"/>
<circle cx="10.9052" cy="10.2979" r="10.0647" fill="white" fill-opacity="0.5"/>
</svg>
